<svg xmlns="http://www.w3.org/2000/svg" viewBox="0 0 64 64">
  <title>日历之外</title>
  <rect width="64" height="64" rx="17" fill="#253d32"/>
  <rect x="7" y="7" width="50" height="50" rx="12" fill="#2d4a3e" stroke="#f4eee3" stroke-opacity=".22"/>
  <path d="M17 18v28M25 18v28M33 18v28M41 18v28M49 18v28M17 18h32M17 26h32M17 34h32M17 42h32M17 50h32" fill="none" stroke="#f4eee3" stroke-opacity=".3" stroke-width="1.5"/>
  <path d="M17 42c5 0 5-16 12-16 5 0 5 12 11 12 4 0 5-7 9-18" fill="none" stroke="#d48665" stroke-linecap="round" stroke-linejoin="round" stroke-width="3"/>
  <circle cx="17" cy="42" r="3" fill="#f4eee3"/>
  <circle cx="29" cy="26" r="3" fill="#f4eee3"/>
  <circle cx="40" cy="38" r="3" fill="#f4eee3"/>
  <circle cx="49" cy="18" r="4" fill="#d48665" stroke="#f4eee3" stroke-width="1.5"/>
</svg>
